<svg width="172" height="112" viewBox="0 0 172 112" fill="none" xmlns="http://www.w3.org/2000/svg">
<g clip-path="url(#clip0_225_9331)">
<g opacity="0.9">
<path d="M90.6802 71.5406L90.9702 70.8906L90.7702 71.1906L90.6802 71.5406Z" fill="#6D33DD"/>
<path d="M90.7703 71.1903L90.9604 70.8803C88.6804 69.4303 85.5103 68.2603 81.7803 68.5503C78.0503 68.8403 73.8003 70.5803 69.3403 74.8803L47.9203 95.5603L47.3604 96.1003L48.1304 96.1803L56.6404 97.1103L56.6804 96.7503L57.0303 96.8303L58.0504 92.3903L73.8604 77.1303C76.9904 74.1103 79.9604 72.3903 82.7504 71.5803C85.5404 70.7803 88.1803 70.8803 90.6703 71.5303L90.7604 71.1803L90.7703 71.1903Z" fill="#6D33DD"/>
<path d="M40.5804 101.931C39.9204 102.561 39.5004 103.341 39.4404 104.171C39.3804 105.001 39.6904 105.851 40.4104 106.591C41.1104 107.311 41.9304 107.651 42.7704 107.621C43.6004 107.601 44.4004 107.221 45.0704 106.581C45.7704 105.901 46.2104 105.091 46.2804 104.251C46.3504 103.401 46.0404 102.561 45.3404 101.841C44.0504 100.511 42.0204 100.551 40.5904 101.941L40.5804 101.931Z" fill="#6D33DD"/>
<path d="M129.31 1.07044C128.65 1.70044 128.23 2.48044 128.17 3.31044C128.11 4.14044 128.42 4.99044 129.14 5.73044C129.84 6.45044 130.66 6.79044 131.5 6.76044C132.33 6.74044 133.13 6.36044 133.8 5.72044C134.5 5.04044 134.94 4.23044 135.01 3.39044C135.08 2.54044 134.77 1.70044 134.07 0.980441C132.78 -0.349559 130.75 -0.309559 129.32 1.08044L129.31 1.07044Z" fill="#6D33DD"/>
<path d="M56.6406 97.1207L56.9606 97.1507L57.0406 96.8407L56.6806 96.7607L56.6406 97.1207Z" fill="#6D33DD"/>
<path d="M62.8601 69.6307C64.3001 59.9807 57.1001 53.3207 49.2201 52.1507C41.2801 50.9707 32.4601 55.2407 31.0201 64.8907C29.5901 74.4807 36.7801 81.2007 44.7301 82.3807C52.6101 83.5507 61.4401 79.2207 62.8701 69.6307H62.8601ZM54.4301 75.6207C51.0101 77.1707 46.7601 77.7407 42.9901 77.1807C39.9901 76.7307 37.2901 75.4907 35.4701 73.6207C33.6501 71.7607 32.6801 69.2707 33.1301 66.2607C33.6201 62.9807 36.1301 60.4907 39.5401 58.9507C42.9401 57.4107 47.1701 56.8607 50.9401 57.4207C53.9401 57.8707 56.6501 59.1107 58.5001 60.9707C60.3401 62.8307 61.3201 65.3007 60.8801 68.2807C60.3901 71.5607 57.8601 74.0607 54.4301 75.6207Z" fill="#6D33DD"/>
<path d="M35.3403 35.3601L34.8003 35.0801V35.6901L34.9503 43.5301V44.0101L35.4103 43.8801L39.2503 42.7401L73.6503 60.4401L75.4703 64.6501L75.7703 65.3501L76.1203 64.6701L80.7103 55.7501L81.0603 55.0701L80.3103 55.2301L75.8203 56.2001L35.3303 35.3601H35.3403Z" fill="#6D33DD"/>
<path d="M58.1603 20.2005L57.8203 19.7305L57.5503 20.2505L57.8703 20.4205L58.1603 20.2005Z" fill="#6D33DD"/>
<path d="M54.3703 27.1402L54.2903 27.4902L58.2503 28.4402L70.5603 45.4202L70.2803 50.0002L70.2303 50.7602L70.8503 50.3102L78.9703 44.4202L79.5903 43.9702L78.8503 43.7802L74.4103 42.6202L58.1603 20.2002L57.8703 20.4102L57.5503 20.2402L54.0503 26.9602L53.8403 27.3702L54.2903 27.4802L54.3703 27.1302V27.1402Z" fill="#6D33DD"/>
<path d="M49.8001 17.3501C50.6301 17.5401 51.5101 17.3501 52.3201 16.7601C53.8201 15.6701 54.0601 13.6601 52.8901 12.0401C52.3501 11.3001 51.6501 10.7701 50.8301 10.6001C50.0101 10.4201 49.1401 10.6101 48.3001 11.2201C47.4901 11.8101 47.0401 12.5801 46.9501 13.4101C46.8601 14.2401 47.1201 15.0901 47.6601 15.8301C48.2301 16.6201 48.9701 17.1701 49.8001 17.3501Z" fill="#6D33DD"/>
<path d="M40.0302 16.3003L39.3302 16.4703C39.8702 21.2603 37.9202 24.9803 34.7602 27.1703C32.0302 29.0603 29.0502 29.6203 26.2102 28.9303C23.3702 28.2303 20.6202 26.2603 18.3802 23.0303C17.9302 22.3803 17.5302 21.7103 17.1902 21.0503L32.6202 10.3603L32.9202 10.1503L32.7102 9.85026L29.8202 5.67026C28.3702 3.58026 26.6402 2.41026 24.6902 2.19026C22.7502 1.97026 20.6702 2.69026 18.5202 4.18026C11.0802 9.33026 10.7502 20.1403 15.5802 27.1103C18.2402 30.9503 21.6302 33.1303 25.1902 33.7603C28.7502 34.3903 32.4502 33.4703 35.7302 31.1903C40.3702 27.9803 42.3802 22.4003 40.0302 16.3003ZM19.1802 6.27026C20.3202 5.48026 21.4402 5.21026 22.5302 5.49026C23.6302 5.77026 24.7802 6.64026 25.9202 8.29026L27.7502 10.9403L16.2802 18.8803C14.6102 14.0603 15.3002 8.95026 19.1702 6.27026H19.1802Z" fill="#6D33DD"/>
<path d="M86.3103 38.5205L86.0503 39.1905L86.2303 38.8705L86.3103 38.5205Z" fill="#6D33DD"/>
<path d="M95.31 41.1503C99.03 40.7103 103.21 38.8003 107.48 34.3203L128.05 12.7903L128.58 12.2303L127.81 12.1803L119.27 11.5903L118.95 11.5703L118.89 11.8903L118.05 16.3703L102.87 32.2603C99.86 35.4103 96.97 37.2403 94.21 38.1603C91.46 39.0803 88.82 39.0803 86.3 38.5303L86.22 38.8803L86.04 39.1903C88.38 40.5503 91.59 41.5903 95.3 41.1503H95.31Z" fill="#6D33DD"/>
<path d="M152.01 14.6201C144.67 8.2901 135.15 10.7701 129.9 16.8501C124.7 22.8801 123.64 32.6601 130.98 38.9901C138.37 45.3701 147.84 42.8401 153.04 36.8101C158.29 30.7301 159.4 20.9901 152 14.6201H152.01ZM152.47 25.0001C151.95 28.7001 150.16 32.5701 147.67 35.4501C145.69 37.7501 143.19 39.3701 140.62 39.9401C138.07 40.5001 135.45 40.0101 133.17 38.0501C130.66 35.8801 129.9 32.4001 130.42 28.6801C130.94 24.9601 132.73 21.0701 135.22 18.1801C137.2 15.8801 139.69 14.2701 142.25 13.7201C144.79 13.1801 147.42 13.6901 149.72 15.6801C152.23 17.8501 152.99 21.3001 152.47 25.0101V25.0001Z" fill="#6D33DD"/>
<path d="M103.4 85.4802L103.73 85.3302L101.86 81.1402L113.95 37.2402L114.11 36.6602L113.52 36.7902L105.88 38.5402L105.42 38.6502L105.65 39.0702L107.55 42.5902L97.2803 79.8802L93.5303 82.5302L93.7403 82.8302L93.6403 83.1802L103.31 85.8402L103.41 85.4902L103.4 85.4802Z" fill="#6D33DD"/>
<path d="M103.4 85.4801L103.3 85.8201L104.04 86.0301L103.73 85.3301L103.4 85.4801Z" fill="#6D33DD"/>
<path d="M93.5201 82.5205L92.8901 82.9605L93.6301 83.1605L93.7301 82.8105L93.5201 82.5205Z" fill="#6D33DD"/>
<path d="M122.84 97.8907L123.1 97.6307L119.87 94.3707L117.31 66.8007L117.25 66.2207L116.75 66.5307L110.32 70.5307L109.93 70.7707L110.26 71.0907L113.18 73.9307L115.12 94.8107L112.55 98.6107L112.85 98.8207L112.88 99.1807L122.87 98.2507L122.84 97.8907Z" fill="#6D33DD"/>
<path d="M122.84 97.8909L122.87 98.2509L123.64 98.1809L123.1 97.6309L122.84 97.8909Z" fill="#6D33DD"/>
<path d="M112.55 98.6104L112.12 99.2504L112.88 99.1804L112.85 98.8204L112.55 98.6104Z" fill="#6D33DD"/>
<path d="M113.4 54.04C112.4 54.13 111.62 54.57 111.12 55.24C110.62 55.91 110.41 56.77 110.5 57.68C110.59 58.65 110.95 59.5 111.57 60.08C112.19 60.67 113.04 60.95 114.04 60.86C115.89 60.69 117.12 59.08 116.93 57.09C116.85 56.18 116.5 55.37 115.9 54.8C115.29 54.23 114.44 53.95 113.41 54.04H113.4Z" fill="#6D33DD"/>
<path d="M145.93 66.5505L145.58 66.4605C144.32 71.1105 141.13 73.8505 137.39 74.7205C134.15 75.4705 131.18 74.9005 128.8 73.2105C126.41 71.5105 124.59 68.6705 123.69 64.8405C123.51 64.0705 123.39 63.3005 123.31 62.5605L141.59 58.3105L141.94 58.2305L141.86 57.8805L140.71 52.9305C140.13 50.4505 138.96 48.7305 137.23 47.8105C135.51 46.8905 133.31 46.7905 130.76 47.3805C121.95 49.4305 117.65 59.3505 119.57 67.6105C120.63 72.1605 122.97 75.4305 126.05 77.3305C129.13 79.2305 132.91 79.7305 136.79 78.8305C142.28 77.5505 146.22 73.1105 146.28 66.5805L145.57 66.4805L145.92 66.5705L145.93 66.5505ZM130.61 49.5405C131.97 49.2305 133.11 49.3905 134.02 50.0505C134.94 50.7205 135.68 51.9505 136.14 53.9005L136.87 57.0405L123.28 60.2005C123.51 55.1005 126.04 50.6005 130.62 49.5405H130.61Z" fill="#6D33DD"/>
<path d="M31.5402 111.801C21.1902 105.971 12.6902 98.6107 10.8902 87.0407C8.49016 71.6207 15.2102 60.8707 23.0002 52.4107C10.9102 45.9607 2.07016 36.6907 0.37016 25.8407C-1.32984 15.0407 3.17016 8.56074 7.90016 4.51074L8.80016 5.18074C5.40016 9.06074 2.31016 16.1407 3.85016 24.3807C5.64016 33.9607 11.9402 42.9307 24.5502 51.0507L25.7502 51.8207L24.8402 52.9207C18.5802 60.4707 13.0002 73.8407 15.0602 86.7107C16.5702 96.1507 22.4102 104.121 32.4202 110.401L31.5402 111.801Z" fill="#6D33DD"/>
<path d="M140.43 111.8C150.78 105.97 159.28 98.61 161.08 87.04C163.48 71.62 156.76 60.87 148.97 52.41C161.06 45.96 169.9 36.68 171.61 25.84C173.31 15.03 168.81 8.55 164.07 4.5L163.17 5.17C166.57 9.05 169.66 16.13 168.12 24.37C166.33 33.95 160.03 42.92 147.42 51.04L146.22 51.81L147.13 52.91C153.39 60.46 158.97 73.83 156.91 86.7C155.4 96.14 149.56 104.11 139.55 110.39L140.43 111.79V111.8Z" fill="#6D33DD"/>
</g>
</g>
<defs>
<clipPath id="clip0_225_9331">
<rect width="171.96" height="111.8" fill="white"/>
</clipPath>
</defs>
</svg>
